# xmcd
#
# Track frame offsets:
#	150
#	12333
#	21793
#	37295
#	51893
#	65488
#	74117
#	86764
#	99017
#	113190
#	127240
#	139309
#	152487
#	164733
#	177184
#
# Disc length: 2515 seconds
#
# Revision: 0
# Processed by: cddbd v1.5.2PL0 Copyright (c) Steve Scherf et al.
# Submitted via: EasyCDDAExtractor 11.5.0.1
#
DISCID=db09d10f
DTITLE=Various Artist - carters, the - over the times
DYEAR=1900
DGENRE=
TTITLE0=carter cash, june - the LNN don't stop here anymore
TTITLE1=carter cash, june and smith, carl - love, oh crazy love
TTITLE2=carter cash, june and smith, carl - times awasting
TTITLE3=carter family, the - border songs
TTITLE4=carter family, the - will my mother know me there
TTITLE5=carter, anita - love's a ring of fire
TTITLE6=carter, jeanet and joe - curtains of night
TTITLE7=carter, jeanet and joe - higher ground
TTITLE8=carter, pauline - crazy
TTITLE9=cash, johnny - ring of fire
TTITLE10=cash, johnny and carter, june - field of diamonds
TTITLE11=cash, johnny and carter, june - got another journey on my mind
TTITLE12=cash, johnny and carter, june - if I were a carpenter
TTITLE13=cash, johnny and carter, june - jackson
TTITLE14=cash, johnny and the carter family - I got to sing about trains
EXTD=
EXTT0=
EXTT1=
EXTT2=
EXTT3=
EXTT4=
EXTT5=
EXTT6=
EXTT7=
EXTT8=
EXTT9=
EXTT10=
EXTT11=
EXTT12=
EXTT13=
EXTT14=
PLAYORDER=
